<svg version="1.2" xmlns="http://www.w3.org/2000/svg" viewBox="0 0 500 500" width="32" height="32">
	<title>codepen-logo</title>
	<style>
		.s0 { fill: #000000 } 
	</style>
	<g>
		<path class="s0" d="m250 0c-138.1 0-250 111.9-250 250 0 138.1 111.9 250 250 250 138.1 0 250-111.9 250-250 0-138.1-111.9-250-250-250zm0 458.9c-115.2 0-208.9-93.7-208.9-208.9 0-115.2 93.7-208.9 208.9-208.9 115.2 0 208.9 93.7 208.9 208.9 0 115.2-93.7 208.9-208.9 208.9z"/>
		<path class="s0" d="m404.5 201.2q-0.1-0.3-0.1-0.6-0.1-0.6-0.3-1.1-0.1-0.3-0.2-0.7-0.1-0.5-0.3-0.9-0.2-0.4-0.3-0.7-0.2-0.4-0.5-0.9-0.2-0.3-0.4-0.6-0.2-0.4-0.5-0.8-0.2-0.3-0.5-0.6-0.3-0.3-0.6-0.7-0.3-0.2-0.6-0.5-0.3-0.3-0.7-0.6-0.3-0.3-0.6-0.5-0.1-0.1-0.2-0.1l-141.3-94.2c-4.5-3-10.3-3-14.8 0l-141.3 94.2q-0.1 0-0.2 0.1-0.3 0.2-0.6 0.5-0.4 0.3-0.7 0.6-0.3 0.3-0.6 0.5-0.3 0.4-0.6 0.7-0.3 0.3-0.5 0.6-0.3 0.4-0.5 0.8-0.2 0.3-0.4 0.6-0.3 0.5-0.5 0.9-0.1 0.3-0.3 0.7-0.2 0.4-0.3 0.9-0.1 0.4-0.2 0.7-0.2 0.5-0.2 1.1-0.1 0.3-0.2 0.6-0.1 0.8-0.1 1.7v94.2q0 0.9 0.1 1.7 0.1 0.3 0.2 0.6 0 0.6 0.2 1.1 0.1 0.4 0.2 0.7 0.1 0.5 0.3 0.9 0.2 0.4 0.3 0.7 0.2 0.4 0.5 0.9 0.2 0.3 0.4 0.6 0.2 0.4 0.5 0.8 0.2 0.3 0.5 0.6 0.3 0.3 0.6 0.7 0.3 0.3 0.6 0.5 0.3 0.3 0.7 0.6 0.3 0.3 0.6 0.5 0.1 0.1 0.2 0.2l141.3 94.1c2.3 1.5 4.8 2.3 7.4 2.3 2.6 0 5.1-0.8 7.4-2.3l141.3-94.1q0.1-0.1 0.2-0.2 0.3-0.2 0.6-0.5 0.4-0.3 0.7-0.6 0.3-0.2 0.6-0.5 0.3-0.4 0.6-0.7 0.3-0.3 0.5-0.6 0.3-0.4 0.5-0.8 0.2-0.3 0.4-0.6 0.3-0.5 0.5-0.9 0.1-0.3 0.3-0.7 0.2-0.4 0.3-0.9 0.1-0.3 0.2-0.7 0.2-0.5 0.3-1.1 0-0.3 0.1-0.6 0.1-0.8 0.1-1.7v-94.2q0-0.9-0.1-1.7zm-141.2-67.7l104.1 69.4-46.5 31.1-57.6-38.5zm-26.6 0v62l-57.6 38.5-46.5-31.1zm-114.7 94.2l33.2 22.3-33.2 22.2zm114.7 138.7l-104.1-69.4 46.5-31.1 57.6 38.5c0 0 0 62 0 62zm13.3-85.1l-47-31.4 47-31.4 47 31.4zm13.3 85.1v-62l57.6-38.5 46.5 31.1zm114.7-94.3l-33.2-22.2 33.2-22.2z"/>
	</g>
</svg>